<svg xmlns="http://www.w3.org/2000/svg" viewBox="0 0 863 258.53"><title>Recurso 1</title><g id="Capa_2" data-name="Capa 2"><g id="Capa_1-2" data-name="Capa 1"><polygon points="529.11 258.53 459.32 258.53 362.08 108.04 299.45 204.96 299.45 204.97 264.85 258.53 264.26 258.53 229.64 204.97 167.03 108.04 69.8 258.53 0 258.53 132.12 54.02 167.03 0 201.94 54.02 264.55 150.95 327.17 54.02 362.08 0 396.99 54.02 529.11 258.53"/><polygon points="863 258.53 793.2 258.53 695.97 108.04 633.36 204.97 598.74 258.53 598.15 258.53 563.54 204.97 495.4 99.5 466.01 54.02 500.92 0 535.83 54.02 598.45 150.95 661.06 54.02 695.97 0 730.88 54.02 863 258.53"/></g></g></svg>