<svg id="Capa_2" data-name="Capa 2" xmlns="http://www.w3.org/2000/svg" xmlns:xlink="http://www.w3.org/1999/xlink" width="307.288" height="92.055" viewBox="0 0 307.288 92.055">
  <defs>
    <linearGradient id="linear-gradient" x1="0.5" x2="0.848" y2="0.772" gradientUnits="objectBoundingBox">
      <stop offset="0" stop-color="#2563eb"/>
      <stop offset="1" stop-color="#22d3ee"/>
    </linearGradient>
  </defs>
  <g id="Capa_1" data-name="Capa 1">
    <path id="Trazado_13" data-name="Trazado 13" d="M188.4,92.055H163.55L128.926,38.47l-22.3,34.51v0L94.305,92.055h-.21L81.768,72.984,59.474,38.47,24.854,92.055H0l47.044-72.82L59.474,0,71.9,19.235,94.2,53.749l22.3-34.514L128.926,0l12.43,19.235Z"/>
    <path id="Trazado_14" data-name="Trazado 14" d="M607.366,92.055H582.512L547.892,38.47,525.6,72.984,513.271,92.055h-.21L500.737,72.984,476.475,35.429,466.01,19.235,478.44,0l12.43,19.235,22.3,34.514,22.294-34.514L547.892,0l12.43,19.235Z" transform="translate(-300.078)" fill="url(#linear-gradient)"/>
  </g>
</svg>
